<?xml version="1.0" standalone="no"?>
<!DOCTYPE svg PUBLIC "-//W3C//DTD SVG 20010904//EN"
 "http://www.w3.org/TR/2001/REC-SVG-20010904/DTD/svg10.dtd">
<svg version="1.0" xmlns="http://www.w3.org/2000/svg"
 width="700.000000pt" height="700.000000pt" viewBox="0 0 700.000000 700.000000"
 preserveAspectRatio="xMidYMid meet">
<metadata>
Created by potrace 1.11, written by Peter Selinger 2001-2013
</metadata>
<g transform="translate(0.000000,700.000000) scale(0.100000,-0.100000)"
fill="#000000" stroke="none">
<path d="M1121 6651 l-33 -6 22 -20 c37 -33 106 -136 134 -197 23 -53 28 -58
58 -59 387 -10 936 -213 1503 -556 50 -30 99 -59 110 -66 11 -7 47 -30 80 -52
33 -22 64 -42 70 -45 27 -14 185 -124 184 -129 0 -3 -54 -49 -120 -101 -66
-52 -131 -104 -143 -115 -12 -11 -49 -42 -82 -70 -32 -27 -61 -52 -64 -55 -3
-3 -43 -39 -90 -80 -145 -127 -198 -178 -435 -415 -299 -299 -536 -562 -746
-828 -45 -56 -84 -103 -87 -105 -7 -2 -229 325 -270 398 -11 19 -41 71 -67
115 -106 177 -236 437 -310 617 -60 148 -118 322 -146 443 -15 64 -27 87 -41
79 -18 -11 -138 -5 -208 10 -36 8 -67 12 -69 10 -7 -6 62 -279 99 -395 137
-420 402 -925 732 -1397 43 -62 81 -118 84 -126 3 -7 -23 -53 -58 -102 -93
-130 -328 -495 -328 -510 0 -2 -19 -34 -42 -71 -137 -224 -369 -750 -424 -963
-51 -199 -59 -239 -83 -405 -9 -60 -7 -338 2 -385 19 -96 28 -132 45 -180 99
-284 318 -469 632 -532 71 -14 349 -18 445 -5 117 14 141 19 260 48 142 35
203 54 350 107 294 106 730 327 1013 514 41 26 75 48 77 48 4 0 255 171 291
199 12 9 32 23 44 31 85 58 503 387 562 443 7 6 45 39 83 72 151 128 290 259
520 490 282 281 393 402 615 665 74 88 79 93 155 190 37 47 72 85 78 85 13 0
172 -236 294 -440 101 -167 263 -479 326 -625 88 -207 168 -457 192 -600 3
-19 8 -42 10 -50 13 -45 19 -131 19 -265 0 -125 -4 -163 -23 -230 -54 -193
-172 -317 -353 -369 -90 -27 -97 -28 -233 -31 -250 -5 -535 60 -875 202 -58
24 -109 45 -113 46 -5 1 -20 -18 -33 -43 -41 -72 -72 -118 -110 -159 l-34 -39
152 -65 c185 -78 434 -160 553 -183 11 -2 40 -8 65 -14 180 -42 481 -49 634
-16 298 65 507 247 606 527 17 46 30 85 29 87 0 1 5 35 11 75 19 110 16 360
-5 482 -91 517 -327 1055 -739 1685 -66 102 -123 187 -126 190 -3 3 -20 25
-38 49 l-32 44 35 49 c68 94 223 324 275 408 75 120 181 302 178 305 -2 1 -37
18 -78 38 -41 19 -96 51 -122 71 l-47 36 -20 -29 c-12 -16 -21 -32 -21 -35 0
-24 -364 -586 -380 -586 -7 0 -69 74 -165 196 -16 20 -34 42 -40 48 -5 6 -50
58 -100 116 -182 212 -253 289 -525 560 -243 243 -293 290 -445 426 -81 73
-243 210 -335 285 -19 15 -63 51 -98 80 l-62 51 22 17 c22 17 281 187 358 236
75 47 177 105 325 187 174 95 462 223 645 286 124 42 340 95 455 110 103 14
329 7 400 -12 278 -75 406 -265 414 -611 l1 -51 56 2 c49 1 85 -5 206 -32 l27
-6 -4 126 c-6 223 -57 398 -156 543 -78 113 -214 218 -359 276 -125 50 -235
65 -435 61 -99 -1 -191 -5 -205 -7 -14 -3 -43 -8 -65 -11 -79 -13 -262 -59
-370 -93 -461 -148 -983 -424 -1517 -803 l-47 -33 -58 40 c-733 512 -1373 810
-1928 897 -58 10 -354 15 -394 7z m2589 -1476 c101 -81 99 -79 230 -191 188
-161 318 -282 545 -509 222 -222 307 -313 496 -530 105 -120 359 -435 359
-444 0 -3 -13 -22 -29 -41 -16 -19 -77 -96 -137 -170 -89 -112 -203 -249 -224
-270 -3 -3 -23 -25 -44 -50 -329 -377 -793 -822 -1201 -1149 -118 -95 -114
-91 -162 -129 l-41 -32 -109 84 c-188 147 -406 333 -627 536 -92 84 -430 424
-527 530 -188 205 -390 444 -527 624 l-53 68 34 42 c18 22 69 86 113 141 43
55 81 102 84 105 3 3 27 32 55 65 27 33 54 65 60 71 5 6 35 40 65 75 373 432
934 961 1363 1287 l69 52 66 -52 c37 -29 101 -79 142 -113z m-2185 -1978 c42
-55 312 -378 365 -437 152 -170 224 -245 424 -445 228 -227 343 -336 481 -451
39 -33 77 -66 85 -74 8 -9 51 -45 95 -80 44 -36 82 -67 85 -70 3 -3 47 -38 98
-79 50 -40 92 -76 92 -80 0 -13 -537 -361 -557 -361 -2 0 -35 -18 -71 -39
-153 -89 -389 -202 -581 -277 -375 -147 -736 -205 -966 -154 -246 55 -377 190
-431 445 -3 17 -8 84 -9 150 -3 105 4 184 29 320 3 17 7 44 10 60 14 78 93
322 156 480 82 205 248 527 392 759 81 131 252 386 258 386 3 -1 23 -24 45
-53z"/>
<path d="M3395 4369 c-22 -4 -57 -10 -77 -13 -61 -10 -198 -64 -271 -107 -132
-78 -270 -231 -337 -373 -155 -329 -93 -713 159 -980 218 -230 558 -324 861
-239 491 138 764 661 593 1136 -101 282 -345 498 -634 561 -83 18 -234 26
-294 15z"/>
<path d="M517 6409 c-179 -41 -275 -245 -193 -412 106 -218 420 -213 522 8 69
151 1 323 -155 390 -42 19 -124 25 -174 14z"/>
<path d="M6336 5239 c-45 -11 -127 -68 -156 -109 -64 -90 -70 -221 -16 -314
111 -189 372 -198 494 -16 39 57 51 105 47 177 -5 80 -36 143 -96 197 -75 68
-167 90 -273 65z"/>
<path d="M4020 1451 c-154 -32 -257 -197 -220 -351 52 -217 323 -297 483 -142
149 143 110 381 -78 472 -47 23 -130 32 -185 21z"/>
</g>
</svg>
