<svg aria-hidden="true" style="position: absolute; width: 0; height: 0; overflow: hidden;" version="1.1" xmlns="http://www.w3.org/2000/svg" xmlns:xlink="http://www.w3.org/1999/xlink">
<defs>
<symbol id="icon-magnifying-glass" viewBox="0 0 20 20">
<path d="M17.545 15.467l-3.779-3.779c0.57-0.935 0.898-2.035 0.898-3.21 0-3.417-2.961-6.377-6.378-6.377s-6.186 2.769-6.186 6.186c0 3.416 2.961 6.377 6.377 6.377 1.137 0 2.2-0.309 3.115-0.844l3.799 3.801c0.372 0.371 0.975 0.371 1.346 0l0.943-0.943c0.371-0.371 0.236-0.84-0.135-1.211zM4.004 8.287c0-2.366 1.917-4.283 4.282-4.283s4.474 2.107 4.474 4.474c0 2.365-1.918 4.283-4.283 4.283s-4.473-2.109-4.473-4.474z"></path>
</symbol>
<symbol id="icon-sun" viewBox="0 0 32 32">
<path d="M16 26c1.105 0 2 0.895 2 2v2c0 1.105-0.895 2-2 2s-2-0.895-2-2v-2c0-1.105 0.895-2 2-2zM16 6c-1.105 0-2-0.895-2-2v-2c0-1.105 0.895-2 2-2s2 0.895 2 2v2c0 1.105-0.895 2-2 2zM30 14c1.105 0 2 0.895 2 2s-0.895 2-2 2h-2c-1.105 0-2-0.895-2-2s0.895-2 2-2h2zM6 16c0 1.105-0.895 2-2 2h-2c-1.105 0-2-0.895-2-2s0.895-2 2-2h2c1.105 0 2 0.895 2 2zM25.899 23.071l1.414 1.414c0.781 0.781 0.781 2.047 0 2.828s-2.047 0.781-2.828 0l-1.414-1.414c-0.781-0.781-0.781-2.047 0-2.828s2.047-0.781 2.828 0zM6.101 8.929l-1.414-1.414c-0.781-0.781-0.781-2.047 0-2.828s2.047-0.781 2.828 0l1.414 1.414c0.781 0.781 0.781 2.047 0 2.828s-2.047 0.781-2.828 0zM25.899 8.929c-0.781 0.781-2.047 0.781-2.828 0s-0.781-2.047 0-2.828l1.414-1.414c0.781-0.781 2.047-0.781 2.828 0s0.781 2.047 0 2.828l-1.414 1.414zM6.101 23.071c0.781-0.781 2.047-0.781 2.828 0s0.781 2.047 0 2.828l-1.414 1.414c-0.781 0.781-2.047 0.781-2.828 0s-0.781-2.047 0-2.828l1.414-1.414z"></path>
<path d="M16 8c-4.418 0-8 3.582-8 8s3.582 8 8 8c4.418 0 8-3.582 8-8s-3.582-8-8-8zM16 21c-2.761 0-5-2.239-5-5s2.239-5 5-5 5 2.239 5 5-2.239 5-5 5z"></path>
</symbol>
<symbol id="icon-svg" viewBox="0 0 32 32">
<path d="M29 13c-0.888 0-1.686 0.386-2.236 1h-5.936l4.197-4.197c0.822 0.046 1.66-0.245 2.288-0.874 1.172-1.172 1.172-3.071 0-4.243s-3.071-1.172-4.243 0c-0.628 0.628-0.919 1.466-0.874 2.288l-4.197 4.197v-5.936c0.614-0.549 1-1.347 1-2.236 0-1.657-1.343-3-3-3s-3 1.343-3 3c0 0.888 0.386 1.686 1 2.236v5.936l-4.197-4.197c0.045-0.822-0.245-1.66-0.874-2.288-1.172-1.172-3.071-1.172-4.243 0s-1.172 3.071 0 4.243c0.628 0.628 1.466 0.919 2.288 0.874l4.197 4.197h-5.936c-0.549-0.614-1.347-1-2.236-1-1.657 0-3 1.343-3 3s1.343 3 3 3c0.888 0 1.686-0.386 2.236-1h5.936l-4.197 4.197c-0.822-0.046-1.66 0.245-2.288 0.874-1.172 1.172-1.172 3.071 0 4.243s3.071 1.172 4.243 0c0.628-0.628 0.919-1.466 0.874-2.288l4.197-4.197v5.936c-0.614 0.549-1 1.347-1 2.235 0 1.657 1.343 3 3 3s3-1.343 3-3c0-0.888-0.386-1.686-1-2.236v-5.936l4.197 4.197c-0.046 0.822 0.245 1.66 0.874 2.288 1.172 1.172 3.071 1.172 4.243 0s1.172-3.071 0-4.243c-0.628-0.628-1.466-0.919-2.288-0.874l-4.197-4.197h5.936c0.549 0.614 1.347 1 2.235 1 1.657 0 3-1.343 3-3s-1.343-3-3-3z"></path>
</symbol>
</defs>
</svg>
